<?xml version="1.0" encoding="UTF-8"?>
<svg xmlns="http://www.w3.org/2000/svg" xmlns:xlink="http://www.w3.org/1999/xlink" viewBox="0 0 48 48" width="48px" height="48px">
<g id="surface21982241">
<path style=" stroke:none;fill-rule:nonzero;fill:rgb(25.882354%,31.37255%,31.764707%);fill-opacity:1;" d="M 44 35.023438 L 34 35.023438 L 34 6.007812 C 34 5.113281 35.078125 4.667969 35.707031 5.300781 L 43.523438 14.460938 C 43.828125 14.824219 44 15.28125 44 15.757812 Z M 44 35.023438 "/>
<path style=" stroke:none;fill-rule:nonzero;fill:rgb(43.529412%,40.392157%,40.000001%);fill-opacity:1;" d="M 14 35.023438 L 4 35.023438 L 4 15.757812 C 4 15.28125 4.171875 14.824219 4.476562 14.460938 L 12.292969 5.296875 C 12.921875 4.667969 14 5.113281 14 6.007812 Z M 14 35.023438 "/>
<path style=" stroke:none;fill-rule:nonzero;fill:rgb(64.705884%,83.92157%,81.568629%);fill-opacity:1;" d="M 35.292969 42.757812 L 24 32.023438 L 24 17.023438 L 44 35.023438 L 36.675781 42.726562 C 36.296875 43.105469 35.6875 43.117188 35.292969 42.757812 Z M 35.292969 42.757812 "/>
<path style=" stroke:none;fill-rule:nonzero;fill:rgb(92.54902%,100%,70.19608%);fill-opacity:1;" d="M 11.75 42.765625 L 24 32.023438 L 24 17.023438 L 4 35.023438 L 10.351562 42.660156 C 10.710938 43.074219 11.335938 43.121094 11.75 42.765625 Z M 11.75 42.765625 "/>
</g>
</svg>
